<?xml version="1.0" encoding="UTF-8" standalone="no"?>
<!-- Created with Inkscape (http://www.inkscape.org/) -->

<svg
   xmlns:dc="http://purl.org/dc/elements/1.1/"
   xmlns:cc="http://creativecommons.org/ns#"
   xmlns:rdf="http://www.w3.org/1999/02/22-rdf-syntax-ns#"
   xmlns:svg="http://www.w3.org/2000/svg"
   xmlns="http://www.w3.org/2000/svg"
   xmlns:sodipodi="http://sodipodi.sourceforge.net/DTD/sodipodi-0.dtd"
   xmlns:inkscape="http://www.inkscape.org/namespaces/inkscape"
   width="57.674267mm"
   height="10.659022mm"
   viewBox="0 0 57.674267 10.659022"
   version="1.1"
   id="svg8"
   sodipodi:docname="geoengine.svg"
   inkscape:version="0.92.3 (2405546, 2018-03-11)">
  <defs
     id="defs2">
    <clipPath
       clipPathUnits="userSpaceOnUse"
       id="clipPath4665">
      <ellipse
         style="opacity:1;stroke:#ffa8f0;stroke-width:0;stroke-miterlimit:4;stroke-dasharray:none;stroke-opacity:1"
         id="ellipse4667"
         cx="20.753256"
         cy="14.144061"
         rx="2.2324216"
         ry="2.281848" />
    </clipPath>
  </defs>
  <sodipodi:namedview
     id="base"
     pagecolor="#ffffff"
     bordercolor="#666666"
     borderopacity="1.0"
     inkscape:pageopacity="0.0"
     inkscape:pageshadow="2"
     inkscape:zoom="2.8284273"
     inkscape:cx="91.476332"
     inkscape:cy="-14.912024"
     inkscape:document-units="mm"
     inkscape:current-layer="layer1"
     showgrid="false"
     inkscape:window-width="2560"
     inkscape:window-height="1365"
     inkscape:window-x="0"
     inkscape:window-y="0"
     inkscape:window-maximized="1"
     showguides="false"
     inkscape:guide-bbox="true"
     inkscape:snap-page="false"
     fit-margin-top="0"
     fit-margin-left="0"
     fit-margin-right="0"
     fit-margin-bottom="0">
    <sodipodi:guide
       position="-30.33318,-13.762915"
       orientation="0,1"
       id="guide4715"
       inkscape:locked="false" />
    <sodipodi:guide
       position="10.652613,2.0917752"
       orientation="0,1"
       id="guide4717"
       inkscape:locked="false" />
    <sodipodi:guide
       position="2.5206289,8.1582352"
       orientation="0,1"
       id="guide4757"
       inkscape:locked="false" />
    <sodipodi:guide
       position="13.37268,7.3541552"
       orientation="0,1"
       id="guide19"
       inkscape:locked="false" />
    <sodipodi:guide
       position="42.516152,9.2303752"
       orientation="1,0"
       id="guide4671"
       inkscape:locked="false" />
  </sodipodi:namedview>
  <metadata
     id="metadata5">
    <rdf:RDF>
      <cc:Work
         rdf:about="">
        <dc:format>image/svg+xml</dc:format>
        <dc:type
           rdf:resource="http://purl.org/dc/dcmitype/StillImage" />
        <dc:title />
      </cc:Work>
    </rdf:RDF>
  </metadata>
  <g
     inkscape:label="Layer 1"
     inkscape:groupmode="layer"
     id="layer1"
     transform="translate(-4.3378672,-2.4384838)">
    <text
       xml:space="preserve"
       style="font-style:normal;font-weight:normal;font-size:10.58333302px;line-height:1.25;font-family:sans-serif;letter-spacing:0px;word-spacing:0px;fill:#388e3c;fill-opacity:1;stroke:none;stroke-width:0.06614583;stroke-miterlimit:4;stroke-dasharray:none;stroke-opacity:0.5;"
       x="3.7797618"
       y="10.872023"
       id="text23"><tspan
         sodipodi:role="line"
         id="tspan21"
         x="3.7797618"
         y="10.872023"
         style="fill:#388e3c;stroke:none;stroke-width:0.06614583;stroke-miterlimit:4;stroke-dasharray:none;stroke-opacity:0.5;fill-opacity:1;">ge</tspan></text>
    <text
       xml:space="preserve"
       style="font-style:normal;font-weight:normal;font-size:10.58333302px;line-height:1.25;font-family:sans-serif;letter-spacing:0px;word-spacing:0px;fill:#6abf69;fill-opacity:1;stroke:none;stroke-width:0.06614583;stroke-miterlimit:4;stroke-dasharray:none;stroke-opacity:0.5;"
       x="26.210703"
       y="10.911593"
       id="text27"><tspan
         sodipodi:role="line"
         id="tspan25"
         x="26.210703"
         y="10.911593"
         style="fill:#6abf69;stroke:none;stroke-width:0.06614583;stroke-miterlimit:4;stroke-dasharray:none;stroke-opacity:0.5;fill-opacity:1;">eng ne</tspan></text>
    <path
       style="fill:#6abf69;fill-opacity:1;fill-rule:nonzero;stroke:#ffffff;stroke-width:0.01242831;stroke-miterlimit:4;stroke-dasharray:none;stroke-opacity:0.5"
       d="m 47.294736,4.1597823 c -0.215796,-0.123436 -0.408834,-0.253668 -0.428988,-0.289388 -0.0202,-0.03572 -0.03803,-0.257883 -0.03976,-0.493691 l -0.0032,-0.428739 0.406646,-0.251124 0.406644,-0.251124 0.429564,0.246751 0.42956,0.246753 -0.004,0.455387 -0.004,0.455385 -0.284609,0.16575 c -0.156521,0.09115 -0.336532,0.211356 -0.399986,0.267124 -0.11082,0.09739 -0.130837,0.09255 -0.507709,-0.123054 z"
       id="path4654"
       inkscape:connector-curvature="0" />
    <path
       id="path4652-6"
       style="fill:#6abf69;fill-opacity:1;fill-rule:nonzero;stroke:#ffffff;stroke-width:0.00741664;stroke-miterlimit:4;stroke-dasharray:none;stroke-opacity:0.5"
       d="m 47.18877,7.6708667 0.0011,1.3523732 -0.102261,0.07242 c -0.128232,0.0914 -0.2596,0.256173 -0.347942,0.435918 -0.05693,0.115683 -0.0686,0.186751 -0.06838,0.421218 3.01e-4,0.3381381 0.05548,0.4818461 0.272399,0.7134281 0.15662,0.167164 0.28618,0.243859 0.522186,0.309116 0.31346,0.08667 0.690442,-0.0146 0.954773,-0.256576 0.501346,-0.458956 0.440425,-1.2648911 -0.124854,-1.6457931 l -0.142188,-0.09549 -0.01347,-1.3074032 z m 0.220043,1.7769732 0.290939,-2.52e-4 0.290424,-2.63e-4 0.0771,0.121377 c 0.04228,0.06686 0.110242,0.181604 0.151106,0.254642 l 0.07401,0.132747 -0.14398,0.2424801 -0.144494,0.24248 -0.295068,0.0074 -0.295581,0.0074 -0.142834,-0.251031 -0.142832,-0.2515471 0.140869,-0.252813 z m 0.920815,-4.4756602 c -0.01246,-0.0014 -0.02438,4.15e-4 -0.03772,0.0047 -0.0712,0.02269 -0.06959,0.01176 -0.07664,0.440346 l -0.0045,0.259937 -0.279956,0.161975 -0.280469,0.16146 -0.253329,-0.136219 c -0.139337,-0.07508 -0.270132,-0.149689 -0.290554,-0.165644 -0.02543,-0.01986 -0.0368,-0.125499 -0.03694,-0.334834 -1.65e-4,-0.238399 -0.01095,-0.316082 -0.04732,-0.352396 -0.06788,-0.06775 -0.08311,-0.06099 -0.225231,0.09733 -0.276894,0.308479 -0.343448,0.822162 -0.156116,1.201087 0.08672,0.175425 0.37092,0.47149 0.488241,0.508615 0.05939,0.01876 0.05998,0.03904 0.06122,1.5698812 l 2.3e-5,0.06873 0.950331,-7.83e-4 -10e-4,-0.08217 -0.01571,-1.5192752 0.173523,-0.1345 c 0.207858,-0.160191 0.387516,-0.424563 0.436148,-0.642694 0.07482,-0.335587 -0.02805,-0.737961 -0.250919,-0.983715 -0.07639,-0.08429 -0.115676,-0.117545 -0.153061,-0.121831 z"
       inkscape:connector-curvature="0" />
    <ellipse
       style="fill:none;fill-opacity:1;fill-rule:nonzero;stroke:#388e3c;stroke-width:0.84541345;stroke-miterlimit:4;stroke-dasharray:none;stroke-opacity:1;paint-order:normal"
       id="path4740"
       cx="20.721632"
       cy="7.9500914"
       rx="2.6253655"
       ry="2.6254945" />
    <path
       style="fill:#388e3c;fill-opacity:1;stroke:#388e3c;stroke-width:0;stroke-miterlimit:4;stroke-dasharray:none;stroke-opacity:1"
       d="m 20.287871,16.741663 c -0.260739,-0.05836 -0.622117,-0.202852 -0.85329,-0.341185 -0.567458,-0.339567 -0.955985,-0.832887 -1.162495,-1.476046 -0.117164,-0.364899 -0.122606,-0.409113 -0.10634,-0.863908 0.01915,-0.535242 0.110471,-0.867498 0.349874,-1.272853 0.27845,-0.471475 0.86739,-0.946622 1.420685,-1.146188 0.325854,-0.117531 1.108124,-0.148813 1.467606,-0.05869 0.944981,0.236915 1.720408,1.027205 1.930019,1.967016 0.372818,1.67156 -0.888106,3.234514 -2.592832,3.213891 -0.20626,-0.0025 -0.41021,-0.01241 -0.453227,-0.02204 z m 0.860307,-0.319635 0.15642,-0.02887 -0.128939,-0.02693 c -0.127112,-0.02656 -0.420203,-0.20566 -0.506304,-0.309404 -0.0243,-0.02928 -0.07219,-0.227361 -0.106442,-0.440196 -0.0633,-0.39333 -0.15914,-0.670764 -0.258909,-0.749428 -0.03038,-0.02395 -0.160223,-0.05535 -0.288537,-0.06977 -0.415445,-0.04669 -0.646558,-0.26593 -0.646558,-0.613357 0,-0.337783 0.127061,-0.53762 0.423619,-0.666258 0.258431,-0.112098 0.350201,-0.095 0.64541,0.120214 0.146138,0.106539 0.299848,0.204545 0.341575,0.21779 0.046,0.0146 0.179674,-0.02476 0.339582,-0.09999 0.329764,-0.155152 0.374482,-0.190056 0.322989,-0.252101 -0.02779,-0.03347 -0.01637,-0.06843 0.03862,-0.118187 0.147775,-0.133736 0.08984,-0.24105 -0.117456,-0.217575 -0.101833,0.01153 -0.243012,0.201985 -0.223888,0.30203 0.03182,0.166428 -0.128017,0.10947 -0.343974,-0.122578 -0.109652,-0.11782 -0.233509,-0.217392 -0.275234,-0.221271 -0.145754,-0.01355 -0.194469,0.006 -0.232789,0.09333 -0.02838,0.06468 -0.07746,0.0912 -0.185244,0.100122 -0.156479,0.01295 -0.208478,-0.06194 -0.06842,-0.09857 0.09363,-0.02448 0.09953,-0.07937 0.01822,-0.169235 -0.05523,-0.06102 -0.04821,-0.0682 0.08798,-0.09011 0.174681,-0.0281 0.336104,-0.130855 0.299247,-0.190489 -0.0304,-0.04921 0.09549,-0.02642 0.289663,0.05244 0.1527,0.06201 0.244028,0.02049 0.299911,-0.136329 0.05304,-0.148842 -0.01922,-0.212717 -0.174361,-0.154155 -0.277548,0.104763 -0.009,-0.232639 0.306754,-0.385539 0.168039,-0.08134 0.177703,-0.08185 0.3007,-0.01561 0.144738,0.07795 0.266536,0.06915 0.283802,-0.02049 0.02362,-0.122613 -0.504197,-0.269324 -0.96892,-0.269324 -0.44559,0 -0.957395,0.145446 -1.260207,0.358127 -0.08935,0.06275 -0.09939,0.08646 -0.06196,0.146385 0.0361,0.05781 0.02543,0.104226 -0.05575,0.242399 -0.121718,0.207159 -0.290471,0.337576 -0.488275,0.377352 -0.126366,0.02541 -0.160424,0.05623 -0.235834,0.213396 -0.122835,0.256006 -0.214157,0.65553 -0.149838,0.65553 0.02661,0 0.09045,0.04479 0.141866,0.09952 0.07789,0.08291 0.08546,0.11065 0.04535,0.166195 -0.238235,0.329991 -0.250771,0.421498 -0.110638,0.807558 0.135365,0.372932 0.324667,0.664053 0.599512,0.921979 0.505965,0.474819 1.289503,0.712782 1.947273,0.591399 z m 0.684334,-0.229973 c 0.502815,-0.247051 0.940175,-0.756923 1.134993,-1.323173 0.09222,-0.26809 0.0928,-0.273895 0.02133,-0.214566 -0.04465,0.03707 -0.06435,0.03067 -0.09776,-0.03175 -0.02302,-0.04299 -0.04183,-0.11236 -0.04183,-0.154155 0,-0.0418 -0.022,-0.09307 -0.04887,-0.113934 -0.05709,-0.04431 -1.110254,-0.141328 -1.165248,-0.107339 -0.05732,0.03543 -0.04409,0.198647 0.02049,0.25223 0.04589,0.03809 0.09528,0.03509 0.24126,-0.01465 0.100955,-0.0344 0.193122,-0.05297 0.204818,-0.04128 0.0117,0.0117 -0.03627,0.121626 -0.106579,0.244291 -0.07031,0.122665 -0.225076,0.418402 -0.343918,0.657192 -0.171897,0.345391 -0.220488,0.485315 -0.237645,0.684335 -0.01185,0.137594 -0.04123,0.275084 -0.06524,0.305537 -0.06913,0.08763 0.142114,0.02535 0.484231,-0.142742 z"
       id="path4579"
       inkscape:connector-curvature="0"
       clip-path="url(#clipPath4665)"
       transform="translate(-0.01432871,-6.3673566)" />
  </g>
</svg>
